<?xml version="1.0" encoding="utf-8"?>
<!-- Generator: Adobe Illustrator 23.0.1, SVG Export Plug-In . SVG Version: 6.00 Build 0)  -->
<svg version="1.1" id="Layer_1" xmlns="http://www.w3.org/2000/svg" xmlns:xlink="http://www.w3.org/1999/xlink" x="0px" y="0px"
	 viewBox="0 0 1024 1024" style="enable-background:new 0 0 1024 1024;" xml:space="preserve">
<g id="LIBBY">
	<path id="bob" style="fill-rule:evenodd;clip-rule:evenodd;fill:#A61C49;" d="M265.3,760c-55.2-59.7-88.9-139.5-88.9-227.1
		c0-185.9,150.3-336.1,336.1-336.1c184.9,0,335.1,150.3,335.1,336.1c0,87.5-33.7,167.3-88.8,227.1H265.3z"/>
	<circle id="face" style="fill-rule:evenodd;clip-rule:evenodd;fill:#FFEEAA;" cx="512" cy="532.4" r="301.5"/>
	<path id="ribbon" style="fill-rule:evenodd;clip-rule:evenodd;fill:#29CFC3;" d="M752.6,122.8c0,0-55.7,27.3-67.9,27.3
		S616,122.8,616,122.8v71.4c51.5,15,98,43,136.5,77.9L752.6,122.8L752.6,122.8z"/>
	<path id="right-hair" style="fill-rule:evenodd;clip-rule:evenodd;fill:#A61C49;" d="M672.5,477.2c39.7-49.5,70.4-106.5,89.7-168.5
		c53.1,59.5,85.4,138,85.4,224.2c0,34.5-5.2,67.7-14.9,99L672.5,477.2z"/>
	<path id="left-hair" style="fill-rule:evenodd;clip-rule:evenodd;fill:#A61C49;" d="M198.9,653.7c-14.5-37.5-22.5-78.3-22.5-120.8
		c0-185.9,150.3-336.1,336.1-336.1c93.2,0,177.7,38.2,238.5,100c-64.5,209-259.2,360.8-489.3,360.8
		C240.4,657.6,219.5,656.3,198.9,653.7z"/>
	<path id="right-eye" style="fill-rule:evenodd;clip-rule:evenodd;fill:#631A35;" d="M601.7,602.9c-0.8-3.2-1.2-6.6-1.2-10.1
		c0-23.2,18.8-41.9,42-41.9s42,18.8,42,41.9c0,16-9,29.9-22.2,37c-4.5-18.3-21.1-31.8-40.8-31.8
		C614.3,597.9,607.6,599.7,601.7,602.9z"/>
	<path id="right-eye-closed" style="fill-rule:evenodd;clip-rule:evenodd;fill:#631A35;" d="M655.2,629.8c-29,0-61.5-37.5-57.9-42.9
		c3.7-5.4,35.5,9.4,56,9.4c22.4,0,56.8-14.8,60.4-9.6S685.2,629.8,655.2,629.8z"/>
	<g id="icon" transform="translate(0.000000, -0.111111)">
		<g id="libby" transform="translate(176.355556, 142.911111)">
			<path id="bob_2_" style="fill:#A61C49;" d="M103.1,616.8C40,566,0.8,489.6,0.8,390c0-194.8,150.1-335.7,335.7-335.7
				c184.6,0,334.7,140.9,334.7,335.7c0,99.6-39.2,175.9-102.2,226.8H103.1z"/>
			<circle id="face_1_" style="fill:#FFEEAA;" cx="336.1" cy="389.5" r="301.1"/>
			<path id="ribbon_2_" style="fill:#29CFC3;" d="M576.3-19.6c0,0-55.6,27.2-67.8,27.2c-12.1,0-68.6-27.2-68.6-27.2v71.3
				c51.4,15,97.9,42.9,136.4,77.9V-19.6z"/>
			<path id="right-hair_2_" style="fill:#A61C49;" d="M496.4,334.4c39.7-49.4,70.3-106.3,89.6-168.3c53,59.4,85.3,137.8,85.3,223.9
				c0,34.4-5.2,67.6-14.9,98.9L496.4,334.4z"/>
			<path id="left-hair_1_" style="fill:#A61C49;" d="M23.3,510.7C8.8,473.3,0.8,432.6,0.8,390c0-185.6,150.1-335.7,335.7-335.7
				c93.1,0,177.5,38.2,238.2,99.9C510.3,362.9,315.9,514.5,86.1,514.5C64.8,514.5,43.9,513.2,23.3,510.7z"/>
			<path id="smile" style="fill:#631A35;" d="M337.6,615.3c31.8,0,65.4-24.5,57.2-41.7c-4.3-8.8-28.2,11.2-57.2,11.6
				c-27.6-0.2-51.3-18.6-56.1-11.6C269.6,590.4,306.8,615.3,337.6,615.3z"/>
			<path id="eye-open" style="fill:#631A35;" d="M425.6,459.9c-0.8-3.2-1.2-6.6-1.2-10.1c0-23.1,18.8-41.9,41.9-41.9
				c23.2,0,41.9,18.8,41.9,41.9c0,16-9,29.9-22.2,36.9c-4.5-18.2-21-31.8-40.7-31.8C438.2,455,431.5,456.8,425.6,459.9z"/>
		</g>
	</g>
</g>
</svg>
