<?xml version="1.0" encoding="utf-8"?>
<!-- Generator: Adobe Illustrator 23.0.1, SVG Export Plug-In . SVG Version: 6.00 Build 0)  -->
<svg version="1.1" id="Layer_1" xmlns="http://www.w3.org/2000/svg" xmlns:xlink="http://www.w3.org/1999/xlink" x="0px" y="0px"
	 viewBox="0 0 1024 1024" style="enable-background:new 0 0 1024 1024;" xml:space="preserve">
<g id="BOOK">
	<path id="pages-outline_1_" style="fill-rule:evenodd;clip-rule:evenodd;fill:#631A35;" d="M131,746c0-55.2,44.2-92.9,98.6-83.5
		c0,0,194.4,28,260.4,65.5c10.8,0.1,32.7,0.1,44,0c66.6-37.8,254.4-65.2,254.4-65.2c54.4-9.3,98.6,28,98.6,83.2v483H131V746z"/>
	<path id="pages_1_" style="fill-rule:evenodd;clip-rule:evenodd;fill:#FFFFFF;" d="M131,731.3c0-34.4,27.6-58,61.5-52.3
		c0,0,231.5,34.4,297.5,72c10.8,0,32.7,0,44,0c66.6-37.9,291.5-71.8,291.5-71.8c33.9-5.6,61.5,17.7,61.5,52.1V1229H131V731.3z"/>
	<path id="back-cover_1_" style="fill-rule:evenodd;clip-rule:evenodd;fill:#29CFC3;" d="M512,1229V775l-367-67
		c-28.9-5.5-51.5,14.5-51,44l-1,477H512z"/>
	<path id="front-cover_1_" style="fill-rule:evenodd;clip-rule:evenodd;fill:#23B0A7;" d="M512,1229V774l367-67
		c29.3-5.5,53,14.4,53,44v478H512z"/>
	<polygon id="spine_1_" style="fill-rule:evenodd;clip-rule:evenodd;fill:#26BFB5;" points="566,1229 566,765 457,765 457,1229 	"/>
</g>
</svg>
