<?xml version="1.0" encoding="utf-8"?>
<!-- Generator: Adobe Illustrator 23.0.1, SVG Export Plug-In . SVG Version: 6.00 Build 0)  -->
<svg version="1.1" xmlns="http://www.w3.org/2000/svg" xmlns:xlink="http://www.w3.org/1999/xlink" x="0px" y="0px"
	 viewBox="0 0 648 175.064" style="enable-background:new 0 0 648 175.064;" xml:space="preserve">
<g id="Layer_2" style="display:none;">
	<path style="display:inline;fill:#C7C8CA;" d="M192.693-34.219c9.505,0,17.299,7.647,17.299,17.205
		C209.992-7.647,202.198,0,192.693,0c-9.316,0-16.92-7.647-16.92-17.014C175.773-26.572,183.378-34.219,192.693-34.219z"/>
	<path style="display:inline;fill:#C7C8CA;" d="M84.65,175.064c9.505,0,17.299,7.647,17.299,17.205
		c0,9.367-7.795,17.014-17.299,17.014c-9.316,0-16.92-7.647-16.92-17.014C67.73,182.711,75.335,175.064,84.65,175.064z"/>
	<path style="display:inline;fill:#C7C8CA;" d="M-17.299,39.101C-7.795,39.101,0,46.747,0,56.305C0,65.673-7.795,73.32-17.299,73.32
		c-9.316,0-16.92-7.647-16.92-17.014C-34.219,46.747-26.615,39.101-17.299,39.101z"/>
	<path style="display:inline;fill:#C7C8CA;" d="M664.92,90.44c9.504,0,17.299,7.647,17.299,17.205
		c0,9.367-7.795,17.014-17.299,17.014c-9.316,0-16.92-7.647-16.92-17.014C648,98.086,655.604,90.44,664.92,90.44z"/>
</g>
<g id="Layer_1">
	<path style="fill:#FFFFFF;" d="M42.563,44.681v-25.36c0-1.63-1.321-2.951-2.951-2.951H22.404c-1.63,0-2.951,1.321-2.951,2.951
		v10.337c0,8.475-4.622,15.022-14.637,15.022H2.951C1.321,44.681,0,46.002,0,47.632v16.824c0,1.63,1.321,2.951,2.951,2.951h14.19
		v44.103c0,18.296,11.556,29.274,30.045,29.274c5.71,0,9.751-0.779,12.375-1.576c1.236-0.375,2.068-1.528,2.068-2.82v-15.64
		c0-1.755-1.521-3.113-3.267-2.934c-1.428,0.146-3.077,0.244-4.629,0.244c-7.318,0-11.169-2.697-11.169-10.978V67.407h29.473
		v104.706c0,1.63,1.321,2.951,2.951,2.951h19.712c1.63,0,2.951-1.321,2.951-2.951v-42.885c4.624,6.356,14.252,11.555,27.349,11.555
		c26.769,0,44.681-20.222,44.681-48.917c0-28.119-15.985-49.303-43.718-49.303c-14.252,0-24.844,6.356-29.081,13.674
		c0-6.382-5.174-11.555-11.555-11.555H42.563z M120.954,117.865c-13.095,0-23.688-9.051-23.688-25.807
		c0-16.756,10.592-26.578,23.688-26.578c13.097,0,23.496,9.822,23.496,26.578C144.45,109.006,134.051,117.865,120.954,117.865z"/>
	<path style="fill:#FFFFFF;" d="M202.736,0h-19.707c-1.631,0-2.954,1.323-2.954,2.954v133.892c0,1.631,1.323,2.954,2.954,2.954
		h19.707c1.631,0,2.954-1.323,2.954-2.954V2.954C205.69,1.323,204.368,0,202.736,0z"/>
	<path style="fill:#FFD600;" d="M243.4,43.69c9.505,0,17.299,7.647,17.299,17.205c0,9.367-7.795,17.014-17.299,17.014
		c-9.316,0-16.92-7.647-16.92-17.014C226.48,51.336,234.084,43.69,243.4,43.69z"/>
	<path style="fill:#FFD600;" d="M243.4,106.564c9.505,0,17.299,7.647,17.299,17.205c0,9.367-7.795,17.014-17.299,17.014
		c-9.316,0-16.92-7.647-16.92-17.014C226.48,114.211,234.084,106.564,243.4,106.564z"/>
	<g>
		<path style="fill:#FFFFFF;" d="M439.426,44.681h5.505c0.544,0,0.985,0.441,0.985,0.985v5.766c0,0.544-0.441,0.985-0.985,0.985
			h-5.505v13.496c0,2.819,1.311,3.737,3.802,3.737c0.539,0,1.113-0.035,1.606-0.086c0.58-0.061,1.082,0.396,1.082,0.979l0,5.36
			c0,0.435-0.281,0.817-0.697,0.944c-0.893,0.272-2.271,0.539-4.219,0.539c-6.293,0-10.227-3.737-10.227-9.964V52.416h-4.85
			c-0.544,0-0.985-0.441-0.985-0.985v-5.766c0-0.544,0.441-0.985,0.985-0.985h0.654c3.409,0,4.982-2.237,4.982-5.122v-3.538
			c0-0.544,0.441-0.985,0.985-0.985h5.897c0.544,0,0.985,0.441,0.985,0.985V44.681z"/>
		<path style="fill:#FFFFFF;" d="M481.318,60.799c0,9.899-7.278,17.11-16.914,17.11c-9.636,0-16.914-7.21-16.914-17.11
			c0-9.964,7.278-17.11,16.914-17.11C474.04,43.689,481.318,50.835,481.318,60.799z M472.599,60.799
			c0-6.096-3.933-9.178-8.195-9.178s-8.195,3.081-8.195,9.178c0,6.031,3.933,9.178,8.195,9.178S472.599,66.895,472.599,60.799z"/>
		<path style="fill:#FFFFFF;" d="M401.204,76.926h-6.75c-0.544,0-0.985-0.441-0.985-0.985V45.665c0-0.544,0.441-0.985,0.985-0.985
			h6.488c0.544,0,0.985,0.441,0.985,0.985v3.006c1.967-3.344,5.835-4.852,9.31-4.852c7.997,0,11.668,5.704,11.668,12.784v19.338
			c0,0.544-0.441,0.985-0.985,0.985h-6.75c-0.544,0-0.985-0.441-0.985-0.985V58.112c0-3.606-1.77-6.425-5.965-6.425
			c-3.802,0-6.031,2.95-6.031,6.687v17.567C402.188,76.485,401.747,76.926,401.204,76.926z"/>
		<path style="fill:#FFFFFF;" d="M389.663,60.799c0,9.899-7.278,17.11-16.914,17.11s-16.914-7.21-16.914-17.11
			c0-9.964,7.278-17.11,16.914-17.11S389.663,50.835,389.663,60.799z M380.944,60.799c0-6.096-3.933-9.178-8.195-9.178
			s-8.195,3.081-8.195,9.178c0,6.031,3.933,9.178,8.195,9.178S380.944,66.895,380.944,60.799z"/>
		<path style="fill:#FFFFFF;" d="M355.507,52.173c0,0.597-0.525,1.044-1.118,0.976c-0.535-0.062-1.031-0.086-1.504-0.086
			c-4.458,0-8.325,2.164-8.325,9.112v13.766c0,0.544-0.441,0.985-0.985,0.985h-6.75c-0.544,0-0.985-0.441-0.985-0.985V45.665
			c0-0.544,0.441-0.985,0.985-0.985h6.488c0.544,0,0.985,0.441,0.985,0.985v3.793c1.966-4.262,6.425-5.048,9.178-5.048
			c0.389,0,0.759,0.019,1.121,0.047c0.515,0.04,0.911,0.468,0.911,0.985L355.507,52.173z"/>
		<path style="fill:#FFFFFF;" d="M332.036,60.799c0,9.899-7.278,17.11-16.914,17.11s-16.914-7.21-16.914-17.11
			c0-9.964,7.278-17.11,16.914-17.11S332.036,50.835,332.036,60.799z M323.317,60.799c0-6.096-3.933-9.178-8.195-9.178
			s-8.195,3.081-8.195,9.178c0,6.031,3.933,9.178,8.195,9.178S323.317,66.895,323.317,60.799z"/>
		<path style="fill:#FFFFFF;" d="M290.145,44.681h5.505c0.544,0,0.985,0.441,0.985,0.985v5.766c0,0.544-0.441,0.985-0.985,0.985
			h-5.505v13.496c0,2.819,1.311,3.737,3.802,3.737c0.539,0,1.113-0.035,1.606-0.086c0.58-0.061,1.082,0.396,1.082,0.979l0,5.36
			c0,0.435-0.281,0.817-0.697,0.944c-0.893,0.272-2.271,0.539-4.219,0.539c-6.293,0-10.227-3.737-10.227-9.964V52.416h-4.85
			c-0.544,0-0.985-0.441-0.985-0.985v-5.766c0-0.544,0.441-0.985,0.985-0.985h0.654c3.409,0,4.982-2.237,4.982-5.122v-3.538
			c0-0.544,0.441-0.985,0.985-0.985h5.897c0.544,0,0.985,0.441,0.985,0.985V44.681z"/>
	</g>
	<g>
		<path style="fill:#FFFFFF;" d="M612.682,115.048c0,0.597-0.525,1.044-1.118,0.976c-0.535-0.062-1.031-0.086-1.505-0.086
			c-4.458,0-8.325,2.164-8.325,9.112v13.766c0,0.544-0.441,0.985-0.985,0.985H594c-0.544,0-0.985-0.441-0.985-0.985V108.54
			c0-0.544,0.441-0.985,0.985-0.985h6.488c0.544,0,0.985,0.441,0.985,0.985v3.793c1.966-4.262,6.425-5.048,9.178-5.048
			c0.389,0,0.759,0.019,1.121,0.047c0.515,0.04,0.911,0.468,0.911,0.985L612.682,115.048z"/>
		<path style="fill:#FFFFFF;" d="M553.353,115.048c0,0.597-0.525,1.044-1.118,0.976c-0.535-0.062-1.031-0.086-1.505-0.086
			c-4.458,0-8.325,2.164-8.325,9.112v13.766c0,0.544-0.441,0.985-0.985,0.985h-6.75c-0.544,0-0.985-0.441-0.985-0.985V108.54
			c0-0.544,0.441-0.985,0.985-0.985h6.488c0.544,0,0.985,0.441,0.985,0.985v3.793c1.966-4.262,6.425-5.048,9.178-5.048
			c0.389,0,0.759,0.019,1.121,0.047c0.515,0.04,0.911,0.468,0.911,0.985L553.353,115.048z"/>
		<path style="fill:#FFFFFF;" d="M619.671,151.126l6.974-15.39l-13.013-26.772c-0.318-0.654,0.158-1.415,0.886-1.415h7.56
			c0.386,0,0.737,0.226,0.896,0.577l8.324,18.302l7.679-18.275c0.154-0.366,0.511-0.603,0.908-0.603h7.13
			c0.715,0,1.191,0.737,0.898,1.389l-19.367,42.999c-0.159,0.353-0.51,0.58-0.898,0.58h-7.079
			C619.852,152.517,619.375,151.778,619.671,151.126z"/>
		<path style="fill:#FFFFFF;" d="M578.395,135.409c-1.377,3.081-4.72,5.309-9.047,5.309c-9.505,0-15.798-7.407-15.798-17.174
			c0-9.439,6.162-16.912,15.536-16.912c5.768,0,8.456,3.081,9.243,4.917v-3.014c0-0.544,0.441-0.985,0.985-0.985h6.487
			c0.544,0,0.985,0.441,0.985,0.985v25.432c0,2.007,0.095,3.697,0.175,4.782c0.042,0.57-0.41,1.052-0.982,1.052h-6.405
			c-0.495,0-0.917-0.366-0.977-0.858c-0.104-0.85-0.202-2.028-0.202-3.141V135.409z M570.397,133.179
			c4.523,0,7.932-3.736,7.932-9.636c0-5.9-3.343-9.373-7.932-9.373c-4.654,0-8.062,3.474-8.062,9.373
			C562.334,129.378,565.677,133.179,570.397,133.179z"/>
		<path style="fill:#FFFFFF;" d="M496.647,138.816v-45.49c0-0.544,0.441-0.985,0.985-0.985h6.617c0.544,0,0.985,0.441,0.985,0.985
			v17.763c1.443-2.295,4.983-4.392,9.767-4.392c9.439,0,14.88,7.277,14.88,16.847c0,9.767-6.029,17.043-15.208,17.043
			c-4.456,0-7.866-1.967-9.57-4.72v2.948c0,0.544-0.441,0.985-0.985,0.985h-6.487C497.088,139.8,496.647,139.359,496.647,138.816z
			 M513.166,114.498c-4.392,0-8.062,3.212-8.062,9.112c0,5.834,3.671,9.177,8.062,9.177c4.457,0,7.998-3.278,7.998-9.177
			C521.164,117.709,517.624,114.498,513.166,114.498z"/>
		<path style="fill:#FFFFFF;" d="M486.027,91.555c3.015,0,5.374,2.426,5.374,5.44c0,2.884-2.36,5.31-5.374,5.31
			c-2.95,0-5.376-2.426-5.376-5.31C480.651,93.981,483.077,91.555,486.027,91.555z M481.7,138.816v-30.282
			c0-0.544,0.441-0.985,0.985-0.985h6.749c0.544,0,0.985,0.441,0.985,0.985v30.282c0,0.544-0.441,0.985-0.985,0.985h-6.749
			C482.141,139.8,481.7,139.359,481.7,138.816z"/>
		<path style="fill:#FFFFFF;" d="M466.753,138.816v-45.49c0-0.544,0.441-0.985,0.985-0.985h6.749c0.544,0,0.985,0.441,0.985,0.985
			v45.49c0,0.544-0.441,0.985-0.985,0.985h-6.749C467.194,139.8,466.753,139.359,466.753,138.816z"/>
		<path style="fill:#FFFFFF;" d="M426.961,123.675c0,5.834,3.803,9.112,8.26,9.112c3.943,0,6.142-2.309,7.095-4.566
			c0.199-0.472,0.738-0.733,1.224-0.571l5.84,1.947c0.528,0.176,0.8,0.751,0.617,1.276c-1.762,5.047-6.706,9.91-14.777,9.91
			c-9.505,0-16.977-7.21-16.977-17.108c0-9.964,7.342-17.108,16.715-17.108c8.266,0,13.165,4.818,14.861,9.92
			c0.174,0.522-0.097,1.088-0.618,1.263l-5.979,2.01c-0.492,0.165-1.036-0.099-1.23-0.58c-0.956-2.373-2.99-4.551-6.837-4.551
			C430.698,114.629,426.961,117.841,426.961,123.675z"/>
		<path style="fill:#FFFFFF;" d="M410.048,91.555c3.015,0,5.374,2.426,5.374,5.44c0,2.884-2.36,5.31-5.374,5.31
			c-2.95,0-5.376-2.426-5.376-5.31C404.673,93.981,407.098,91.555,410.048,91.555z M405.721,138.816v-30.282
			c0-0.544,0.441-0.985,0.985-0.985h6.749c0.544,0,0.985,0.441,0.985,0.985v30.282c0,0.544-0.441,0.985-0.985,0.985h-6.749
			C406.162,139.8,405.721,139.359,405.721,138.816z"/>
		<path style="fill:#FFFFFF;" d="M390.774,138.816v-45.49c0-0.544,0.441-0.985,0.985-0.985h6.749c0.544,0,0.985,0.441,0.985,0.985
			v45.49c0,0.544-0.441,0.985-0.985,0.985h-6.749C391.215,139.8,390.774,139.359,390.774,138.816z"/>
		<path style="fill:#FFFFFF;" d="M353.735,138.816v-45.49c0-0.544,0.441-0.985,0.985-0.985h6.619c0.544,0,0.985,0.441,0.985,0.985
			v17.763c1.441-2.295,4.98-4.392,9.766-4.392c9.439,0,14.881,7.277,14.881,16.847c0,9.767-6.032,17.043-15.208,17.043
			c-4.459,0-7.866-1.967-9.571-4.72v2.948c0,0.544-0.441,0.985-0.985,0.985h-6.487C354.176,139.8,353.735,139.359,353.735,138.816z
			 M370.254,114.498c-4.392,0-8.062,3.212-8.062,9.112c0,5.834,3.671,9.177,8.062,9.177c4.457,0,7.998-3.278,7.998-9.177
			C378.252,117.709,374.711,114.498,370.254,114.498z"/>
		<path style="fill:#FFFFFF;" d="M339.246,136.326c-1.77,3.016-5.506,4.327-8.915,4.327c-7.802,0-12.258-5.703-12.258-12.718
			v-19.401c0-0.544,0.441-0.985,0.985-0.985h6.748c0.544,0,0.985,0.441,0.985,0.985v17.632c0,3.605,1.835,6.489,5.9,6.489
			c3.867,0,6.095-2.622,6.095-6.358v-17.763c0-0.544,0.441-0.985,0.985-0.985h6.749c0.544,0,0.985,0.441,0.985,0.985v25.432
			c0,1.85,0.108,3.554,0.218,4.766c0.052,0.575-0.403,1.068-0.981,1.068l-6.378,0c-0.505,0-0.926-0.379-0.98-0.881
			C339.305,138.178,339.246,137.207,339.246,136.326z"/>
		<path style="fill:#FFFFFF;" d="M281.491,151.27v-42.736c0-0.544,0.441-0.985,0.985-0.985h6.487c0.544,0,0.985,0.441,0.985,0.985
			v2.948c1.443-2.491,5.048-4.654,9.898-4.654c9.439,0,14.88,7.21,14.88,16.781c0,9.767-6.095,16.977-15.208,16.977
			c-4.456,0-7.734-1.77-9.308-3.933l0,14.617c0,0.544-0.441,0.985-0.985,0.985h-6.749
			C281.932,152.255,281.491,151.814,281.491,151.27z M298.142,114.629c-4.457,0-8.064,3.343-8.064,9.046
			c0,5.703,3.606,9.112,8.064,9.112s7.997-3.343,7.997-9.112C306.139,117.972,302.6,114.629,298.142,114.629z"/>
	</g>
	<g>
	</g>
	<g>
	</g>
	<g>
	</g>
	<g>
	</g>
	<g>
	</g>
	<g>
	</g>
</g>
</svg>
